<svg xmlns="http://www.w3.org/2000/svg" xmlns:xlink="http://www.w3.org/1999/xlink" style="isolation:isolate" viewBox="0 0 500 500" width="500pt" height="500pt"><path d=" M 473 375 L 361.5 437.5 L 250 500 L 138.5 437.5 L 27 375 L 27 250 L 27 125 L 138.5 62.5 L 250 0 L 361.5 62.5 L 473 125 L 473 250 L 473 375 Z  M 453 363.28 L 351.72 420.05 L 250 477.07 L 148.28 420.05 L 47 363.28 L 47 250 L 47 136.72 L 148.28 79.95 L 250 22.93 L 351.72 79.95 L 453 136.72 L 453 250 L 453 363.28 Z " fill-rule="evenodd" fill="rgb(255,255,255)"/><path d=" M 250.45 172.26 L 250.45 172.26 Q 253.537 172.26 255.208 173.353 L 255.208 173.353 L 255.208 173.353 Q 256.88 174.446 257.716 177.275 L 257.716 177.275 L 257.716 177.275 Q 258.552 180.105 258.552 185.506 L 258.552 185.506 L 258.552 185.506 Q 258.552 190.907 257.716 193.736 L 257.716 193.736 L 257.716 193.736 Q 256.88 196.566 255.208 197.594 L 255.208 197.594 L 255.208 197.594 Q 253.537 198.623 250.45 198.623 L 250.45 198.623 L 243.248 198.623 L 230.26 319.381 L 230.26 319.381 Q 229.874 322.596 228.459 324.397 L 228.459 324.397 L 228.459 324.397 Q 227.044 326.197 223.829 326.969 L 223.829 326.969 L 223.829 326.969 Q 220.614 327.74 214.699 327.74 L 214.699 327.74 L 214.699 327.74 Q 206.211 327.74 202.417 325.811 L 202.417 325.811 L 202.417 325.811 Q 198.623 323.882 197.08 319.381 L 197.08 319.381 L 176.504 258.809 L 155.67 319.381 L 155.67 319.381 Q 154.127 323.882 150.269 325.811 L 150.269 325.811 L 150.269 325.811 Q 146.411 327.74 137.794 327.74 L 137.794 327.74 L 137.794 327.74 Q 131.879 327.74 128.728 326.969 L 128.728 326.969 L 128.728 326.969 Q 125.577 326.197 124.227 324.397 L 124.227 324.397 L 124.227 324.397 Q 122.876 322.596 122.491 319.381 L 122.491 319.381 L 110.016 198.623 L 103.586 198.623 L 103.586 198.623 Q 100.5 198.623 98.828 197.594 L 98.828 197.594 L 98.828 197.594 Q 97.156 196.566 96.32 193.736 L 96.32 193.736 L 96.32 193.736 Q 95.484 190.907 95.484 185.506 L 95.484 185.506 L 95.484 185.506 Q 95.484 180.105 96.32 177.275 L 96.32 177.275 L 96.32 177.275 Q 97.156 174.446 98.828 173.353 L 98.828 173.353 L 98.828 173.353 Q 100.5 172.26 103.586 172.26 L 103.586 172.26 L 154.255 172.26 L 154.255 172.26 Q 157.342 172.26 159.014 173.353 L 159.014 173.353 L 159.014 173.353 Q 160.686 174.446 161.521 177.275 L 161.521 177.275 L 161.521 177.275 Q 162.357 180.105 162.357 185.506 L 162.357 185.506 L 162.357 185.506 Q 162.357 190.907 161.521 193.736 L 161.521 193.736 L 161.521 193.736 Q 160.686 196.566 159.014 197.594 L 159.014 197.594 L 159.014 197.594 Q 157.342 198.623 154.255 198.623 L 154.255 198.623 L 139.209 198.623 L 146.025 273.727 L 164.801 218.685 L 164.801 218.685 Q 165.701 215.727 168.273 214.184 L 168.273 214.184 L 168.273 214.184 Q 170.845 212.641 176.889 212.641 L 176.889 212.641 L 176.889 212.641 Q 183.32 212.641 186.149 213.863 L 186.149 213.863 L 186.149 213.863 Q 188.978 215.084 189.75 217.785 L 189.75 217.785 L 208.654 273.727 L 215.599 198.623 L 202.353 198.623 L 202.353 198.623 Q 199.266 198.623 197.594 197.594 L 197.594 197.594 L 197.594 197.594 Q 195.923 196.566 195.087 193.736 L 195.087 193.736 L 195.087 193.736 Q 194.251 190.907 194.251 185.506 L 194.251 185.506 L 194.251 185.506 Q 194.251 180.105 195.087 177.275 L 195.087 177.275 L 195.087 177.275 Q 195.923 174.446 197.594 173.353 L 197.594 173.353 L 197.594 173.353 Q 199.266 172.26 202.353 172.26 L 202.353 172.26 L 250.45 172.26 Z  M 332.37 172.26 L 332.37 172.26 Q 354.875 172.26 371.079 181.133 L 371.079 181.133 L 371.079 181.133 Q 387.283 190.007 395.9 207.175 L 395.9 207.175 L 395.9 207.175 Q 404.516 224.344 404.516 248.521 L 404.516 248.521 L 404.516 248.521 Q 404.516 272.698 395.9 289.867 L 395.9 289.867 L 395.9 289.867 Q 387.283 307.035 371.079 315.973 L 371.079 315.973 L 371.079 315.973 Q 354.875 324.911 332.37 324.911 L 332.37 324.911 L 271.798 324.911 L 271.798 324.911 Q 268.712 324.911 267.04 323.882 L 267.04 323.882 L 267.04 323.882 Q 265.368 322.853 264.532 320.024 L 264.532 320.024 L 264.532 320.024 Q 263.696 317.195 263.696 311.794 L 263.696 311.794 L 263.696 311.794 Q 263.696 306.392 264.532 303.563 L 264.532 303.563 L 264.532 303.563 Q 265.368 300.734 267.04 299.641 L 267.04 299.641 L 267.04 299.641 Q 268.712 298.547 271.798 298.547 L 271.798 298.547 L 284.273 298.547 L 284.273 198.623 L 271.798 198.623 L 271.798 198.623 Q 268.712 198.623 267.04 197.594 L 267.04 197.594 L 267.04 197.594 Q 265.368 196.566 264.532 193.736 L 264.532 193.736 L 264.532 193.736 Q 263.696 190.907 263.696 185.506 L 263.696 185.506 L 263.696 185.506 Q 263.696 180.105 264.532 177.275 L 264.532 177.275 L 264.532 177.275 Q 265.368 174.446 267.04 173.353 L 267.04 173.353 L 267.04 173.353 Q 268.712 172.26 271.798 172.26 L 271.798 172.26 L 332.37 172.26 Z  M 316.423 199.909 L 316.423 297.261 L 329.798 297.261 L 329.798 297.261 Q 349.731 297.261 359.891 284.851 L 359.891 284.851 L 359.891 284.851 Q 370.05 272.441 370.05 248.521 L 370.05 248.521 L 370.05 248.521 Q 370.05 224.601 359.891 212.255 L 359.891 212.255 L 359.891 212.255 Q 349.731 199.909 329.798 199.909 L 329.798 199.909 L 316.423 199.909 Z " fill="rgb(255,255,255)"/></svg>
